<svg  viewBox="-96 0 480 480.00193" xmlns="http://www.w3.org/2000/svg" xmlns:xlink="http://www.w3.org/1999/xlink"><linearGradient id="a"><stop offset="0" stop-color="#fff200"/><stop offset="1" stop-color="#cd118c"/></linearGradient><linearGradient id="b" gradientUnits="userSpaceOnUse" x1="-135.942905" x2="408.057095" xlink:href="#a" y1="520.001927" y2="-23.998073"/><linearGradient id="c" gradientUnits="userSpaceOnUse" x1="-221.942905" x2="322.057095" xlink:href="#a" y1="434.001927" y2="-109.998073"/><linearGradient id="d" gradientUnits="userSpaceOnUse" x1="-251.942905" x2="292.057095" xlink:href="#a" y1="404.001927" y2="-139.998073"/><linearGradient id="e" gradientUnits="userSpaceOnUse" x1="-157.942905" x2="386.057095" xlink:href="#a" y1="498.001927" y2="-45.998073"/><linearGradient id="f" gradientUnits="userSpaceOnUse" x1="-123.942905" x2="420.057095" xlink:href="#a" y1="532.001927" y2="-11.998073"/><path d="m184.855469 256.042969-8.796875-.839844v-231.203125c0-3.441406-2.207032-6.5-5.472656-7.589844l-48-16c-2.441407-.8125-5.121094-.4023435-7.207032 1.101563-2.085937 1.503906-3.324218 3.917969-3.320312 6.488281v240.800781l-7.203125-.71875c-2.246094-.210937-4.480469.523438-6.167969 2.023438-1.664062 1.507812-2.621094 3.648437-2.628906 5.894531v32h-16c-4.417969 0-8 3.582031-8 8v48c0 4.421875 3.582031 8 8 8h16c0 4.421875 3.582031 8 8 8h8v112c0 4.421875 3.582031 8 8 8h48c4.417968 0 8-3.578125 8-8v-112h8c4.417968 0 8-3.578125 8-8v-88c0-4.105469-3.113282-7.546875-7.203125-7.957031zm-56.796875-236.945313 32 10.671875v223.832031l-32-3.199218zm-40 316.902344v-32h8v32zm72 128h-32v-104h32zm16-120h-64v-79.199219l64 6.402344zm0 0" fill="url(#b)"/><path d="m94.359375 208.441406c2.261719-2.894531 2.261719-6.953125 0-9.847656l-12.140625-15.558594 12.140625-15.527344c2.265625-2.898437 2.265625-6.960937 0-9.859374l-12.132813-15.519532 12.132813-15.511718c2.269531-2.894532 2.269531-6.964844 0-9.863282l-12.125-15.488281 12.125-15.457031c2.273437-2.898438 2.273437-6.972656 0-9.871094l-12.132813-15.503906 12.125-15.496094c2.726563-3.476562 2.117188-8.503906-1.359374-11.230469-3.476563-2.726562-8.503907-2.117187-11.230469 1.359375l-16 20.429688c-2.269531 2.898437-2.269531 6.96875 0 9.867187l12.128906 15.503907-12.128906 15.460937c-2.269531 2.898437-2.269531 6.96875 0 9.867187l12.128906 15.496094-12.128906 15.511719c-2.265625 2.894531-2.265625 6.960937 0 9.855469l12.136719 15.519531-12.144532 15.519531c-2.265625 2.894532-2.265625 6.960938 0 9.855469l12.152344 15.5625-12.152344 15.558594c-2.722656 3.480469-2.105468 8.511719 1.375 11.230469 3.480469 2.722656 8.511719 2.105468 11.230469-1.375zm0 0" fill="url(#c)"/><path d="m18.191406 166.785156 12.175782-15.671875c2.246093-2.886719 2.246093-6.929687 0-9.816406l-12.175782-15.695313 12.175782-15.65625c2.25-2.886718 2.25-6.933593 0-9.824218l-12.167969-15.632813 12.167969-15.597656c2.71875-3.488281 2.097656-8.515625-1.390626-11.234375-3.484374-2.714844-8.515624-2.09375-11.230468 1.394531l-16 20.519531c-2.253906 2.890626-2.253906 6.941407 0 9.832032l12.167968 15.632812-12.167968 15.6875c-2.25 2.886719-2.25 6.933594 0 9.824219l12.175781 15.65625-12.175781 15.671875c-2.246094 2.886719-2.246094 6.925781 0 9.816406l12.191406 15.703125-12.199219 15.703125c-1.7929685 2.253906-2.234375 5.300782-1.15625 7.96875 1.078125 2.671875 3.507813 4.558594 6.363281 4.9375 2.855469.378906 5.691407-.800781 7.433594-3.097656l16-20.609375c2.238282-2.886719 2.238282-6.921875 0-9.808594zm0 0" fill="url(#d)"/><path d="m222.351562 75.9375-12.125-15.503906 12.125-15.496094c2.726563-3.476562 2.117188-8.503906-1.359374-11.230469-3.476563-2.726562-8.503907-2.117187-11.230469 1.359375l-16 20.429688c-2.269531 2.898437-2.269531 6.96875 0 9.867187l12.128906 15.503907-12.128906 15.460937c-2.269531 2.898437-2.269531 6.96875 0 9.867187l12.128906 15.496094-12.128906 15.511719c-2.265625 2.894531-2.265625 6.960937 0 9.855469l12.136719 15.519531-12.144532 15.519531c-2.265625 2.894532-2.265625 6.960938 0 9.855469l12.152344 15.5625-12.152344 15.558594c-2.722656 3.480469-2.105468 8.511719 1.375 11.230469 3.480469 2.722656 8.511719 2.105468 11.230469-1.375l16-20.488282c2.261719-2.894531 2.261719-6.953125 0-9.847656l-12.140625-15.558594 12.140625-15.527344c2.265625-2.898437 2.265625-6.960937 0-9.859374l-12.132813-15.519532 12.132813-15.511718c2.269531-2.894532 2.269531-6.964844 0-9.863282l-12.125-15.488281 12.125-15.457031c2.273437-2.898438 2.269531-6.972656-.007813-9.871094zm0 0" fill="url(#e)"/><path d="m286.378906 182.488281-12.1875-15.703125 12.175782-15.671875c2.246093-2.886719 2.246093-6.929687 0-9.816406l-12.175782-15.695313 12.175782-15.65625c2.25-2.886718 2.25-6.933593 0-9.824218l-12.167969-15.632813 12.167969-15.597656c2.71875-3.488281 2.097656-8.515625-1.390626-11.234375-3.484374-2.714844-8.515624-2.09375-11.230468 1.394531l-16 20.519531c-2.253906 2.890626-2.253906 6.941407 0 9.832032l12.167968 15.632812-12.167968 15.6875c-2.25 2.886719-2.25 6.933594 0 9.824219l12.175781 15.65625-12.175781 15.671875c-2.246094 2.886719-2.246094 6.925781 0 9.816406l12.191406 15.703125-12.199219 15.703125c-1.792969 2.253906-2.234375 5.300782-1.15625 7.96875 1.078125 2.671875 3.507813 4.558594 6.363281 4.9375 2.855469.378906 5.691407-.800781 7.433594-3.097656l16-20.609375c2.238282-2.886719 2.238282-6.921875 0-9.808594zm0 0" fill="url(#f)"/></svg>