<svg  viewBox="-88 0 480 480.00193" xmlns="http://www.w3.org/2000/svg"><path d="m176 24-48-16v249.601562l48 4.800782zm0 0" fill="#006df0"/><path d="m128 352h48v120h-48zm0 0" fill="#acabb1"/><path d="m112 352h80v-88l-16-1.597656-48-4.800782-16-1.601562zm0 0" fill="#71aef7"/><path d="m88 296h24v48h-24zm0 0" fill="#d80027"/><path d="m128 264h48v88h-48zm0 0" fill="#5583b9"/><path d="m144 264h16v88h-16zm0 0" fill="#476d9a"/><path d="m144 352h16v120h-16zm0 0" fill="#97969b"/><path d="m144 16h16v240h-16zm0 0" fill="#71aef7"/><path d="m24 40c13.253906 0 24 10.746094 24 24v144c0 13.257812-10.746094 24-24 24s-24-10.742188-24-24v-144c0-13.253906 10.746094-24 24-24zm0 0" fill="#78b9eb"/><path d="m88 16c13.253906 0 24 10.746094 24 24v176c0 13.257812-10.746094 24-24 24s-24-10.742188-24-24v-176c0-13.253906 10.746094-24 24-24zm0 0" fill="#78b9eb"/><path d="m280 232c-13.253906 0-24-10.742188-24-24v-144c0-13.253906 10.746094-24 24-24s24 10.746094 24 24v144c0 13.257812-10.746094 24-24 24zm0 0" fill="#78b9eb"/><path d="m216 240c-13.253906 0-24-10.742188-24-24v-176c0-13.253906 10.746094-24 24-24s24 10.746094 24 24v176c0 13.257812-10.746094 24-24 24zm0 0" fill="#78b9eb"/><g fill="#1c1c1c"><path d="m192.800781 256.042969-8.800781-.839844v-231.203125c0-3.441406-2.203125-6.5-5.472656-7.589844l-48-16c-2.4375-.8125-5.121094-.4023435-7.207032 1.101563-2.085937 1.503906-3.320312 3.917969-3.320312 6.488281v240.800781l-7.199219-.71875c-2.246093-.210937-4.480469.523438-6.167969 2.023438-1.667968 1.507812-2.621093 3.648437-2.632812 5.894531v32h-16c-4.417969 0-8 3.582031-8 8v48c0 4.421875 3.582031 8 8 8h16c0 4.421875 3.582031 8 8 8h8v112c0 4.421875 3.582031 8 8 8h48c4.417969 0 8-3.578125 8-8v-112h8c4.417969 0 8-3.578125 8-8v-88c0-4.105469-3.109375-7.546875-7.199219-7.957031zm-56.800781-236.945313 32 10.671875v223.832031l-32-3.199218zm-40 316.902344v-32h8v32zm72 128h-32v-104h32zm16-120h-64v-79.199219l7.199219.722657 48 4.796874 8.800781.882813zm0 0"/><path d="m102.304688 208.441406c2.261718-2.894531 2.261718-6.953125 0-9.847656l-12.144532-15.558594 12.144532-15.527344c2.265624-2.898437 2.265624-6.960937 0-9.859374l-12.136719-15.519532 12.136719-15.511718c2.269531-2.894532 2.269531-6.964844 0-9.863282l-12.128907-15.488281 12.128907-15.457031c2.273437-2.898438 2.273437-6.972656 0-9.871094l-12.128907-15.503906 12.128907-15.496094c2.726562-3.476562 2.117187-8.503906-1.359376-11.230469-3.476562-2.726562-8.507812-2.117187-11.230468 1.359375l-16 20.429688c-2.269532 2.898437-2.269532 6.96875 0 9.867187l12.125 15.503907-12.125 15.460937c-2.269532 2.898437-2.269532 6.96875 0 9.867187l12.125 15.496094-12.136719 15.511719c-2.261719 2.894531-2.261719 6.960937 0 9.855469l12.136719 15.519531-12.144532 15.519531c-2.261718 2.894532-2.261718 6.960938 0 9.855469l12.152344 15.5625-12.152344 15.558594c-2.71875 3.480469-2.105468 8.511719 1.378907 11.230469 3.480469 2.722656 8.507812 2.105468 11.230469-1.375zm0 0"/><path d="m26.136719 166.785156 12.175781-15.671875c2.242188-2.886719 2.242188-6.929687 0-9.816406l-12.175781-15.695313 12.175781-15.65625c2.246094-2.886718 2.246094-6.933593 0-9.824218l-12.167969-15.632813 12.167969-15.597656c2.71875-3.488281 2.09375-8.515625-1.390625-11.234375-3.488281-2.714844-8.515625-2.09375-11.234375 1.394531l-16 20.519531c-2.25 2.890626-2.25 6.941407 0 9.832032l12.167969 15.632812-12.167969 15.6875c-2.246094 2.886719-2.246094 6.933594 0 9.824219l12.175781 15.65625-12.175781 15.671875c-2.242188 2.886719-2.242188 6.925781 0 9.816406l12.195312 15.703125-12.203124 15.703125c-1.789063 2.253906-2.230469 5.300782-1.152344 7.96875 1.074218 2.671875 3.507812 4.558594 6.359375 4.9375 2.855469.378906 5.695312-.800781 7.433593-3.097656l16-20.609375c2.238282-2.886719 2.238282-6.921875 0-9.808594zm0 0"/><path d="m230.296875 75.9375-12.128906-15.503906 12.128906-15.496094c2.726563-3.476562 2.117187-8.503906-1.359375-11.230469-3.476562-2.726562-8.507812-2.117187-11.234375 1.359375l-16 20.429688c-2.265625 2.898437-2.265625 6.96875 0 9.867187l12.128906 15.503907-12.128906 15.460937c-2.265625 2.898437-2.265625 6.96875 0 9.867187l12.128906 15.496094-12.128906 15.511719c-2.261719 2.894531-2.261719 6.960937 0 9.855469l12.136719 15.519531-12.144532 15.519531c-2.261718 2.894532-2.261718 6.960938 0 9.855469l12.152344 15.5625-12.152344 15.558594c-2.71875 3.480469-2.105468 8.511719 1.378907 11.230469 3.480469 2.722656 8.507812 2.105468 11.230469-1.375l16-20.488282c2.261718-2.894531 2.261718-6.953125 0-9.847656l-12.144532-15.558594 12.144532-15.527344c2.265624-2.898437 2.265624-6.960937 0-9.859374l-12.136719-15.519532 12.136719-15.511718c2.269531-2.894532 2.269531-6.964844 0-9.863282l-12.128907-15.488281 12.128907-15.457031c2.269531-2.898438 2.265624-6.972656-.007813-9.871094zm0 0"/><path d="m294.320312 182.488281-12.183593-15.703125 12.175781-15.671875c2.242188-2.886719 2.242188-6.929687 0-9.816406l-12.175781-15.695313 12.175781-15.65625c2.246094-2.886718 2.246094-6.933593 0-9.824218l-12.167969-15.632813 12.167969-15.597656c2.71875-3.488281 2.09375-8.515625-1.390625-11.234375-3.488281-2.714844-8.515625-2.09375-11.234375 1.394531l-16 20.519531c-2.25 2.890626-2.25 6.941407 0 9.832032l12.167969 15.632812-12.167969 15.6875c-2.246094 2.886719-2.246094 6.933594 0 9.824219l12.175781 15.65625-12.175781 15.671875c-2.242188 2.886719-2.242188 6.925781 0 9.816406l12.195312 15.703125-12.203124 15.703125c-1.789063 2.253906-2.230469 5.300782-1.152344 7.96875 1.074218 2.671875 3.507812 4.558594 6.359375 4.9375 2.855469.378906 5.695312-.800781 7.433593-3.097656l16-20.609375c2.238282-2.886719 2.238282-6.921875 0-9.808594zm0 0"/></g></svg>