<svg id="Capa_1" enable-background="new 0 0 512 512"  viewBox="0 0 512 512"  xmlns="http://www.w3.org/2000/svg"><g><path 
fill="#f75d83"
d="m81.09 0v59.902h45v30h-45v30.375h45v30h-45v30.375h45v30h-45v30.375h45v30h-45v30.375h45v30h-45v30.375h45v30h-45v30.375h45v30h-45v59.848h394.82v-512zm121.157 241.287c0-35.469 20.299-66.287 49.89-81.446-7.292-9.109-11.667-20.649-11.667-33.197 0-29.347 23.876-53.223 53.224-53.223 29.347 0 53.223 23.875 53.223 53.223 0 12.548-4.375 24.088-11.667 33.197 29.591 15.159 49.89 45.977 49.89 81.446v15h-182.893zm-.408 45h183.294v30h-183.294zm213.514 165.865h-90v-30h90z"/><path d="m294.246 179.853c-.185.002-.367.014-.552.014s-.367-.012-.552-.014c-28.466.253-52.375 19.95-59.042 46.434h119.188c-6.669-26.484-30.577-46.181-59.042-46.434z"/><path d="m293.013 149.85c.227-.002.453-.009.68-.009s.453.007.68.009c12.49-.362 22.543-10.629 22.543-23.206 0-12.805-10.418-23.223-23.223-23.223-12.806 0-23.224 10.417-23.224 23.223.001 12.577 10.053 22.844 22.544 23.206z"/><path d="m36.09 301.402h45v30h-45z"/><path d="m36.09 361.777h45v30h-45z"/><path d="m36.09 422.152h45v30h-45z"/><path d="m36.09 59.902h45v30h-45z"/><path d="m36.09 120.277h45v30h-45z"/><path d="m36.09 180.652h45v30h-45z"/><path d="m36.09 241.027h45v30h-45z"/></g></svg>