<svg height="512pt" viewBox="-89 0 512 512" width="512pt" xmlns="http://www.w3.org/2000/svg"><path d="m238.824219 181.589844c-7.878907 7.878906-20.660157 7.878906-28.539063 0l-69.890625-69.894532c-23.835937-23.835937-23.835937-62.480468 0-86.320312 23.132813-23.128906 60.207031-23.8125 84.160157-2.054688 23.960937-21.757812 61.035156-21.070312 84.164062 2.054688 23.835938 23.839844 23.835938 62.484375 0 86.320312zm0 0" fill="#ff5368"/><path d="m287.503906 90.484375-84.160156 84.160156 6.941406 6.945313c7.878906 7.882812 20.65625 7.882812 28.539063 0l69.894531-69.894532c23.835938-23.835937 23.835938-62.480468 0-86.316406l-.132812.128906c-10.109376 10.105469-14.363282 24.425782-12.324219 38.570313 1.347656 9.359375-1.570313 19.222656-8.757813 26.40625zm0 0" fill="#e93d52"/><path d="m217.5 289.695312v-130.695312c0-14.5-11.753906-26.25-26.25-26.25s-26.25 11.75-26.25 26.25v99.996094c-.003906-14.492188-11.753906-26.238282-26.25-26.238282s-26.25 11.75-26.25 26.25c0-14.5-11.753906-26.25-26.25-26.25s-26.25 11.75-26.25 26.25v18.601563l-.035156.007813c-.726563-13.859376-12.195313-24.871094-26.234375-24.859376-14.429688.011719-26.230469 12.382813-26.230469 26.8125v94.25c0 13.921876 3.632812 27.601563 10.539062 39.6875l29.460938 51.558594v24.433594c0 8.285156 6.714844 15 15 15l134.65625-.015625c8.285156 0 15-6.714844 15-15v-24.417969l31.980469-50.375c8.136719-12.820312 12.457031-27.691406 12.457031-42.878906v-53.558594c.003906-20.441406-20.003906-34.773437-39.09375-28.558594zm0 0" fill="#ffc98c"/><g fill="#f7a16e"><path d="m106.894531 306.917969h5.605469v-47.359375c0-14.339844-11.265625-26.449219-25.601562-26.792969-1.496094-.039063-2.964844.058594-4.398438.261719v49.496094c0 13.472656 10.921875 24.394531 24.394531 24.394531zm0 0"/><path d="m60 306.917969v-27.359375c0-14.339844-11.265625-26.449219-25.601562-26.792969-1.496094-.039063-2.964844.058594-4.398438.261719v29.496094c0 13.472656 10.921875 24.394531 24.394531 24.394531zm0 0"/><path d="m159.394531 306.917969h5.605469v-47.359375c0-14.339844-11.265625-26.449219-25.601562-26.792969-1.496094-.039063-2.964844.058594-4.398438.261719v49.496094c0 13.472656 10.921875 24.394531 24.394531 24.394531zm0 0"/><path d="m226.597656 288.253906v-.019531l-9.097656.019531v-129.253906h-.011719c-.289062-14.097656-11.4375-25.902344-25.585937-26.242188-1.5-.035156-2.96875.058594-4.402344.261719v163.898438c0 16.566406 13.433594 30 30 30h9.097656v44.898437c0 9.488282-2.703125 18.785156-7.789062 26.796875l-26.929688 42.421875c-6.351562 10.003906-9.722656 21.605469-9.722656 33.453125v30.011719l15-.015625c8.285156 0 15-6.714844 15-15v-24.417969l31.980469-50.375c8.136719-12.820312 12.460937-27.691406 12.460937-42.878906v-53.558594c0-16.859375-13.757812-30-30-30zm0 0"/></g><path d="m265.65625 0h-.058594c-14.523437 0-28.945312 4.566406-41.039062 13.601562-11.417969-8.546874-25.582032-13.601562-40.710938-13.601562h-.070312c-38.34375 0-68.800782 30.828125-68.757813 68.777344-.019531 17.566406 6.835938 34.992187 20.070313 48.222656l26.296875 26.300781c-2.476563 4.691407-3.886719 10.03125-3.886719 15.699219v71.957031c-5.367188-3.601562-11.816406-5.699219-18.75-5.699219-10.589844 0-20.058594 4.902344-26.25 12.558594-6.191406-7.65625-15.660156-12.558594-26.25-12.558594-16.035156 0-29.492188 11.238282-32.910156 26.253907-5.535156-3.945313-12.304688-6.253907-19.59375-6.253907h-.023438c-18.277344.011719-33.722656 15.726563-33.722656 34.3125v94.246094c0 15.203125 3.984375 30.214844 11.527344 43.410156l28.472656 49.832032v37.449218c0 4.140626 3.355469 7.492188 7.5 7.492188s7.5-3.351562 7.5-7.492188v-39.441406c0-1.304687-.339844-2.585937-.988281-3.71875l-29.460938-51.5625c-6.246093-10.933594-9.550781-23.371094-9.550781-35.96875v-94.25c0-10.460937 8.578125-19.304687 18.734375-19.3125h.011719c9.949218 0 18.148437 7.746094 18.71875 17.65625v29.003906c0 4.144532 3.355468 7.5 7.5 7.5 4.140625 0 7.5-3.355468 7.5-7.5v-28.578124c.019531-.242188.035156-.484376.035156-.726563v-18.605469c0-10.339844 8.410156-18.75 18.75-18.75s18.75 8.410156 18.75 18.75c0 .09375.011719.183594.015625.277344-.003906.089844-.015625.183594-.015625.273438v47.359374c0 4.144532 3.355469 7.5 7.5 7.5s7.5-3.355468 7.5-7.5v-47.359374c0-.089844-.011719-.183594-.015625-.273438.003906-.09375.015625-.183594.015625-.277344 0-10.339844 8.410156-18.75 18.75-18.75 10.273438 0 18.648438 8.3125 18.75 18.5625v48.097656c0 4.144532 3.355469 7.5 7.5 7.5s7.5-3.355468 7.5-7.5v-147.917968c0-10.335938 8.410156-18.75 18.75-18.75s18.75 8.414062 18.75 18.75v188.984375c0 4.144531 3.355469 7.5 7.5 7.5s7.5-3.355469 7.5-7.5v-52.191407c5.199219-.402343 10.398438 1.058594 14.808594 4.261719 5.902344 4.285157 9.289062 10.921875 9.289062 18.199219v53.5625c0 13.785156-3.90625 27.222656-11.292968 38.859375l-31.980469 50.375c-.761719 1.203125-1.167969 2.597656-1.167969 4.019531v39.425782c0 4.144531 3.355469 7.507812 7.5 7.507812s7.5-3.363281 7.5-7.507812v-37.246094l30.8125-48.535156c8.914062-14.042969 13.628906-30.261719 13.628906-46.898438v-53.5625c0-12.140625-5.640625-23.195312-15.476562-30.339844-7.035156-5.105468-15.300782-7.546875-23.621094-7.160156v-121.75c0-18.609375-15.140625-33.75-33.75-33.75-7.511719 0-14.453125 2.46875-20.066406 6.632812l-25.484375-25.492187c-10.109375-10.101563-15.679688-23.460937-15.679688-37.609375.019531-29.609375 23.546875-53.761719 53.808594-53.78125 13.171875 0 25.839844 4.929688 35.691406 13.871094 2.871094 2.621094 7.257813 2.574218 10.078125 0 9.851563-8.941406 22.640625-13.871094 36.019532-13.871094 29.332031.019531 53.460937 23.734375 53.480468 53.539062-.007812 14.300782-5.578125 27.75-15.679687 37.851563l-60.738281 60.742187c-2.941407 2.9375-2.933594 7.675782 0 10.609376 2.898437 2.917968 7.667968 2.949218 10.597656 0l60.742187-60.742188c13.160157-13.140625 20.078125-30.59375 20.078125-48.460938 0-37.867187-30.726562-68.539062-68.441406-68.539062zm0 0"/></svg>