<svg  viewBox="0 0 64 64"  xmlns="http://www.w3.org/2000/svg"><g id="Filled_outline" data-name="Filled outline"><path d="m35 33.75-6 1.5v-29.25a3 3 0 0 1 3-3 3 3 0 0 1 3 3z" fill="#dd3e46"/><path d="m38 45h-12v-9l12-3z" fill="#cfdfe8"/><path d="m38 37h4v4h-4z" fill="#f9bb4b"/><circle cx="32" cy="39" fill="#aabece" r="2"/><g fill="#eb8cb3"><path d="m18 17h8v2h-8z"/><path d="m21.5 7.692h2v7.616h-2z" transform="matrix(.394 -.919 .919 .394 3.067 27.651)"/><path d="m18.692 23.5h7.616v2h-7.616z" transform="matrix(.919 -.394 .394 .919 -7.834 10.85)"/><path d="m38 17h8v2h-8z"/><path d="m37.692 10.5h7.616v2h-7.616z" transform="matrix(.919 -.394 .394 .919 -1.173 17.286)"/><path d="m40.5 20.692h2v7.616h-2z" transform="matrix(.394 -.919 .919 .394 2.633 52.993)"/></g><path d="m28 49h8a0 0 0 0 1 0 0v10a2 2 0 0 1 -2 2h-4a2 2 0 0 1 -2-2v-10a0 0 0 0 1 0 0z" fill="#98a1a1"/><path d="m24 45h16v4h-16z" fill="#5a6470"/><path d="m29 45h6v4h-6z" fill="#394d5c"/><path d="m28 52h3v2h-3z" fill="#394d5c"/><path d="m28 56h5v2h-5z" fill="#394d5c"/><path d="m42 36h-3v-3a1 1 0 0 0 -1.243-.97l-1.757.44v-26.47a4 4 0 0 0 -8 0v28.47l-2.243.56a1 1 0 0 0 -.757.97v8h-1a1 1 0 0 0 -1 1v4a1 1 0 0 0 1 1h3v9a3 3 0 0 0 3 3h4a3 3 0 0 0 3-3v-9h3a1 1 0 0 0 1-1v-4a1 1 0 0 0 -1-1h-1v-2h3a1 1 0 0 0 1-1v-4a1 1 0 0 0 -1-1zm-12-30a2 2 0 0 1 4 0v26.969l-4 1zm-2 42h-3v-2h3zm7 11a1 1 0 0 1 -1 1h-4a1 1 0 0 1 -1-1v-1h4v-2h-4v-2h2v-2h-2v-2h6zm-5-11v-2h4v2zm-3-4v-7.219l10-2.5v9.719zm12 4h-3v-2h3zm2-8h-2v-2h2z"/><path d="m32 36a3 3 0 1 0 3 3 3 3 0 0 0 -3-3zm0 4a1 1 0 1 1 1-1 1 1 0 0 1 -1 1z"/><path d="m18 17h8v2h-8z"/><path d="m21.5 7.692h2v7.616h-2z" transform="matrix(.394 -.919 .919 .394 3.064 27.647)"/><path d="m18.692 23.5h7.616v2h-7.616z" transform="matrix(.919 -.394 .394 .919 -7.832 10.844)"/><path d="m38 17h8v2h-8z"/><path d="m37.692 10.5h7.616v2h-7.616z" transform="matrix(.919 -.394 .394 .919 -1.173 17.286)"/><path d="m40.5 20.692h2v7.616h-2z" transform="matrix(.394 -.919 .919 .394 2.633 52.993)"/></g></svg>